# xmcd
#
# Track frame offsets:
#	150
#	39896
#	96340
#	133650
#	182867
#
# Disc length: 3164 seconds
#
# Revision: 1
# Processed by: cddbd v1.5.1PL0 Copyright (c) Steve Scherf et al.
# Submitted via: audiograbber 1.83.01
#
DISCID=3d0c5a05
DTITLE=Jimi Hendrix - Am I Blue [CD 2)
DYEAR=1900
DGENRE=Blues
TTITLE0=Voodoo Chile
TTITLE1=Three Little Bears - South Saturn Delta
TTITLE2=Once I Had a Woman
TTITLE3=Cherokee Mist - In From The Storm - Valleys of Neptune
TTITLE4=Hear My Train Comin'
EXTD=
EXTT0=
EXTT1=
EXTT2=
EXTT3=
EXTT4=
PLAYORDER=
